<svg xmlns="http://www.w3.org/2000/svg" viewBox="0 0 100 100"><path style="fill:#fcfcfc" d="M50.708 87.66c11.836 0 23.166-4.395 31.903-12.376l.268-.242-.145-.328c-.773-1.76-1.635-3.567-2.56-5.38-3.727-7.23-8.827-13.483-15.164-18.59-.758-.606-1.556-1.168-2.38-1.676 3.983-3.01 6.645-7.345 7.527-12.286.927-5.195-.227-10.44-3.246-14.77-3.69-5.3-9.754-8.462-16.22-8.462-4.046 0-7.946 1.227-11.28 3.55-8.934 6.23-11.14 18.57-4.913 27.508 1.193 1.708 2.634 3.205 4.29 4.46-.813.5-1.612 1.06-2.38 1.676-6.344 5.106-11.446 11.36-15.163 18.59-.93 1.807-1.792 3.617-2.56 5.38l-.144.33.263.24c8.74 7.982 20.07 12.377 31.905 12.377z"/></svg>